<svg width="800" height="800" viewBox="0 0 800 800" fill="none" xmlns="http://www.w3.org/2000/svg">
<g clip-path="url(#clip0_648_2)">
<path d="M400 230.305C363.33 183.633 306.802 136.961 166.706 133.536C157.504 133.312 150 140.786 150 149.991C150 218.273 150 476.782 150 553.236C150 562.439 157.505 569.669 166.705 569.969C306.802 574.549 363.33 636.662 400 683.336M400 230.305C436.67 183.633 493.197 136.961 633.293 133.536C642.497 133.312 650 140.618 650 149.823C650 226.151 650 476.882 650 553.212C650 562.416 642.497 569.669 633.297 569.969C493.2 574.549 436.67 636.662 400 683.336M400 230.305V683.336" stroke="#434343" stroke-width="33.3333" stroke-linejoin="round"/>
<path d="M641.176 200H716.666C725.869 200 733.333 207.462 733.333 216.667V651.3C733.333 664.787 717.443 673.747 705.116 668.27C678.613 656.493 634.383 642.107 576.469 642.107C478.429 642.107 399.999 700 399.999 700C399.999 700 321.568 642.107 223.529 642.107C165.614 642.107 121.385 656.493 94.8817 668.27C82.5554 673.747 66.666 664.787 66.666 651.3V216.667C66.666 207.462 74.128 200 83.3327 200h358.823" stroke="#434343" stroke-width="33.3333" stroke-linejoin="round"/>
</g>
<defs>
<clipPath id="clip0_648_2">
<rect width="800" height="800" fill="white"/>
</clipPath>
</defs>
</svg>
