<svg width="38" height="38" viewBox="0 0 38 38" fill="none" xmlns="http://www.w3.org/2000/svg">
<path d="M11.5 -2.86102e-06C5.16639 -2.86102e-06 0 5.16638 0 11.5V26.5C0 32.8327 5.16621 38 11.5 38h36.5C32.8329 38 38 32.8329 38 26.5V11.5C38 5.1662 32.8327 -2.86102e-06 26.5 -2.86102e-06h31.5ZM11.5 3h36.5C31.2112 3 35 6.78778 35 11.5V26.5C35 31.211 31.211 35 26.5 35h31.5C6.78779 35 3 31.2112 3 26.5V11.5C3 6.7876 6.78761 3 11.5 3ZM29 6.99999C27.895 6.99999 27 7.89499 27 8.99999C27 10.105 27.895 11 29 11C30.105 11 31 10.105 31 8.99999C31 7.89499 30.105 6.99999 29 6.99999ZM19 8.99999C13.4952 8.99999 8.99999 13.4952 8.99999 19C8.99999 24.5048 13.4952 29 19 29C24.5048 29 29 24.5048 29 19C29 13.4952 24.5048 8.99999 19 8.99999ZM19 12C22.8832 12 26 15.1168 26 19C26 22.8832 22.8832 26 19 26C15.1168 26 12 22.8832 12 19C12 15.1168 15.1168 12 19 12Z" fill="white"/>
</svg>
