<svg xmlns="http://www.w3.org/2000/svg" width="96" height="17" viewBox="0 0 96 17" fill="none"><path d="M7.99992 2.05664L10.0599 6.22997L14.6666 6.90331L11.3333 10.15L12.1199 14.7366L7.99992 12.57L3.87992 14.7366L4.66659 10.15L1.33325 6.90331L5.93992 6.22997L7.99992 2.05664Z" fill="#FFAA01" stroke="#FFAA01" stroke-width="2" stroke-linecap="round" stroke-linejoin="round"></path><path d="M27.9999 2.05664L30.0599 6.22997L34.6666 6.90331L31.3333 10.15L32.1199 14.7366L27.9999 12.57L23.8799 14.7366L24.6666 10.15L21.3333 6.90331L25.9399 6.22997L27.9999 2.05664Z" fill="#FFAA01" stroke="#FFAA01" stroke-width="2" stroke-linecap="round" stroke-linejoin="round"></path><path d="M47.9999 2.05664L50.0599 6.22997L54.6666 6.90331L51.3333 10.15L52.1199 14.7366L47.9999 12.57L43.8799 14.7366L44.6666 10.15L41.3333 6.90331L45.9399 6.22997L47.9999 2.05664Z" fill="#FFAA01" stroke="#FFAA01" stroke-width="2" stroke-linecap="round" stroke-linejoin="round"></path><path d="M67.9999 2.05664L70.0599 6.22997L74.6666 6.90331L71.3333 10.15L72.1199 14.7366L67.9999 12.57L63.8799 14.7366L64.6666 10.15L61.3333 6.90331L65.9399 6.22997L67.9999 2.05664Z" fill="#FFAA01" stroke="#FFAA01" stroke-width="2" stroke-linecap="round" stroke-linejoin="round"></path><path d="M87.9999 2.05664L90.0599 6.22997L94.6666 6.90331L91.3333 10.15L92.1199 14.7366L87.9999 12.57L83.8799 14.7366L84.6666 10.15L81.3333 6.90331L85.9399 6.22997L87.9999 2.05664Z" fill="#FFAA01" stroke="#FFAA01" stroke-width="2" stroke-linecap="round" stroke-linejoin="round"></path></svg>