<svg width="150" height="150" viewBox="0 0 150 150" fill="none" xmlns="http://www.w3.org/2000/svg">
<path fill-rule="evenodd" clip-rule="evenodd" d="M32.6471 73.7144C31.2773 74.0854 30.1107 74.9848 29.4034 76.2151L0.722523 125.895C0.19275 126.812 -0.0534006 127.865 0.0151442 128.922C0.083689 129.979 0.463867 130.991 1.10765 131.832C1.75144 132.673 2.62997 133.304 3.63227 133.646C4.63458 133.988 5.7157 134.025 6.73912 133.753L23.5228 129.254L28.0117 146.026C28.2854 147.05 28.8565 147.97 29.6529 148.669C30.4492 149.368 31.4351 149.815 32.4856 149.954C33.5362 150.093 34.6044 149.917 35.5551 149.449C36.5058 148.981 37.2963 148.241 37.8266 147.324L64.1217 101.787C64.8312 100.558 65.0236 99.0969 64.6567 97.7256C64.2898 96.3543 63.3936 95.1847 62.165 94.4736C60.9354 93.7641 59.4745 93.5717 58.1031 93.9386C56.7318 94.3054 55.5621 95.2016 54.8509 96.4301L35.0223 130.771L32.4901 121.312C32.309 120.632 31.9957 119.994 31.5679 119.434C31.1401 118.875 30.6063 118.406 29.997 118.053C29.3877 117.7 28.7148 117.471 28.0169 117.379C27.319 117.286 26.6096 117.332 25.9294 117.514L16.4598 120.046L38.6741 81.5723C39.3836 80.3427 39.576 78.8818 39.2091 77.5105C38.8422 76.1392 37.9461 74.9695 36.7174 74.2584C36.1081 73.9045 35.4349 73.6743 34.7365 73.5809C34.038 73.4876 33.328 73.5329 32.6471 73.7144Z" fill="white"/>
<path fill-rule="evenodd" clip-rule="evenodd" d="M113.291 74.258C112.062 74.9691 111.166 76.1388 110.799 77.5101C110.432 78.8814 110.625 80.3423 111.334 81.5718L133.548 120.045L124.079 117.513C123.399 117.332 122.689 117.286 121.991 117.378C121.293 117.471 120.62 117.7 120.011 118.053C119.402 118.405 118.868 118.875 118.44 119.434C118.012 119.993 117.699 120.631 117.518 121.311L114.986 130.77L95.1572 96.4297C94.4461 95.2011 93.2764 94.305 91.905 93.9382C90.5336 93.5713 89.0727 93.7637 87.8431 94.4731C86.6145 95.1842 85.7183 96.3539 85.3514 97.7252C84.9846 99.0965 85.177 100.557 85.8864 101.787L112.182 147.323C112.712 148.241 113.502 148.98 114.453 149.449C115.404 149.917 116.472 150.092 117.522 149.954C118.573 149.815 119.559 149.367 120.355 148.668C121.152 147.969 121.723 147.05 121.996 146.026L126.485 129.253L143.269 133.752C144.292 134.025 145.374 133.987 146.376 133.646C147.378 133.304 148.257 132.673 148.9 131.832C149.544 130.991 149.924 129.978 149.993 128.921C150.062 127.865 149.815 126.811 149.286 125.894L120.605 76.2146C119.894 74.986 118.724 74.0899 117.353 73.723C115.981 73.3562 114.52 73.5486 113.291 74.258Z" fill="white"/>
<path fill-rule="evenodd" clip-rule="evenodd" d="M75.004 0C45.4795 0 21.4302 24.0485 21.4302 53.5721C21.4302 83.0957 45.4795 107.144 75.004 107.144C104.529 107.144 128.578 83.0957 128.578 53.5721C128.578 24.0485 104.529 0 75.004 0ZM75.004 10.7144C98.7378 10.7144 117.863 29.839 117.863 53.5721C117.863 77.3052 98.7378 96.4298 75.004 96.4298C51.2702 96.4298 32.1449 77.3052 32.1449 53.5721C32.1449 29.839 51.2702 10.7144 75.004 10.7144Z" fill="white"/>
<path fill-rule="evenodd" clip-rule="evenodd" d="M57.9479 82.8501C59.2568 83.1912 60.6467 83.0266 61.8391 82.3891L75.0036 75.3415L88.1681 82.3891C89.0572 82.8658 90.0631 83.0826 91.0702 83.0147C92.0773 82.9468 93.0447 82.5969 93.8614 82.0053C94.6781 81.4136 95.3109 80.6042 95.687 79.6701C96.0631 78.7359 96.1674 77.7149 95.9878 76.7242L93.334 62.0565L104.121 51.7452C104.849 51.0494 105.367 50.1628 105.613 49.187C105.86 48.2113 105.825 47.186 105.514 46.2288C105.203 45.2717 104.627 44.4215 103.853 43.7759C103.079 43.1302 102.138 42.7154 101.139 42.5788L86.3343 40.5641L79.834 27.1453C79.3951 26.2397 78.7091 25.4758 77.8547 24.9413C77.0004 24.4067 76.0122 24.1232 75.0036 24.1232C73.995 24.1232 73.0068 24.4067 72.1524 24.9413C71.298 25.4758 70.612 26.2397 70.1731 27.1453L63.6729 40.5641L48.8684 42.5788C47.8687 42.7154 46.928 43.1302 46.1541 43.7759C45.3801 44.4215 44.8045 45.2717 44.4931 46.2288C44.1818 47.186 44.1474 48.2113 44.3938 49.187C44.6403 50.1628 45.1577 51.0494 45.8866 51.7452L56.6732 62.0565L54.0194 76.7242C53.7799 78.0511 54.0515 79.4192 54.7799 80.555C55.5082 81.6907 56.6397 82.5104 57.9479 82.8501ZM83.4569 67.7214L77.5381 64.5544C76.7586 64.1378 75.888 63.9197 75.0036 63.9197C74.1192 63.9197 73.2486 64.1378 72.4691 64.5544L66.5503 67.7214L67.743 61.1272C67.8999 60.2589 67.8391 59.3654 67.566 58.5262C67.2929 57.687 66.8159 56.9281 66.1776 56.3173L61.3322 51.6857L67.9815 50.7788C68.8577 50.6585 69.6906 50.3241 70.4059 49.8053C71.1212 49.2865 71.6968 48.5994 72.0815 47.8051L75.0036 41.7685L77.9257 47.8051C78.3104 48.5994 78.886 49.2865 79.6013 49.8053C80.3166 50.3241 81.1494 50.6585 82.0256 50.7788L88.675 51.6857L83.8296 56.3173C83.1913 56.9281 82.7143 57.687 82.4412 58.5262C82.168 59.3654 82.1072 60.2589 82.2642 61.1272L83.4569 67.7214Z" fill="white"/>
</svg>
