<svg xmlns="http://www.w3.org/2000/svg" width="59" height="41" viewBox="0 0 59 41" fill="none"><path fill-rule="evenodd" clip-rule="evenodd" d="M24.859 22.3994C24.0056 31.233 16.564 38.1406 7.50651 38.1467L4.37724 38.1488C3.68197 38.1492 3.11782 38.714 3.11828 39.4093C3.11873 40.1046 3.68368 40.6687 4.37896 40.6683C4.37896 40.6683 5.61915 40.6675 7.50812 40.6662C18.5296 40.6589 27.4604 31.7222 27.4602 20.7007C27.4602 20.7007 27.4602 14.329 27.4601 14.3234C27.421 6.81173 21.2854 0.723145 13.7301 0.723145C6.15066 0.723145 0 6.8509 0 14.3949C0 21.9388 6.15066 28.0666 13.7301 28.0666C18.3074 28.0666 22.3637 25.8319 24.859 22.3994Z" fill="#E5E5E5"></path><path fill-rule="evenodd" clip-rule="evenodd" d="M56.0416 22.3911C55.2171 31.2555 47.7619 38.1955 38.6831 38.2015L35.5539 38.2036C34.8586 38.2041 34.2944 38.7689 34.2949 39.4643C34.2954 40.1596 34.8602 40.7236 35.5555 40.7231C35.5555 40.7231 36.7957 40.7223 38.6847 40.7211C49.7061 40.7138 58.6369 31.7771 58.6369 20.7557V14.3949C58.6369 6.8509 52.4862 0.723145 44.9066 0.723145C37.3272 0.723145 31.1765 6.8509 31.1765 14.3949C31.1765 21.9388 37.3272 28.0666 44.9066 28.0666C49.4877 28.0666 53.5468 25.8281 56.0416 22.3911Z" fill="#E5E5E5"></path></svg>